<svg xmlns="http://www.w3.org/2000/svg" xmlns:xlink="http://www.w3.org/1999/xlink" width="500" zoomAndPan="magnify" viewBox="0 0 375 374.999991" height="500" preserveAspectRatio="xMidYMid meet" version="1.2"><defs/><g id="e4fedc6423"><g style="fill:#ffffff;fill-opacity:1;"><g transform="translate(155.831171, 194.653581)"><path style="stroke:none" d="M 9.734375 -5.84375 C 10.367188 -5.613281 10.867188 -5.257812 11.234375 -4.78125 C 11.597656 -4.3125 11.78125 -3.742188 11.78125 -3.078125 C 11.78125 -2.085938 11.382812 -1.328125 10.59375 -0.796875 C 9.800781 -0.265625 8.660156 0 7.171875 0 L 1.125 0 L 1.125 -11.203125 L 6.84375 -11.203125 C 8.269531 -11.203125 9.359375 -10.9375 10.109375 -10.40625 C 10.859375 -9.875 11.234375 -9.160156 11.234375 -8.265625 C 11.234375 -7.734375 11.101562 -7.253906 10.84375 -6.828125 C 10.582031 -6.410156 10.210938 -6.082031 9.734375 -5.84375 Z M 4.25 -8.90625 L 4.25 -6.75 L 6.4375 -6.75 C 7.5 -6.75 8.03125 -7.113281 8.03125 -7.84375 C 8.03125 -8.550781 7.5 -8.90625 6.4375 -8.90625 Z M 6.90625 -2.28125 C 8.019531 -2.28125 8.578125 -2.660156 8.578125 -3.421875 C 8.578125 -4.179688 8.019531 -4.5625 6.90625 -4.5625 L 4.25 -4.5625 L 4.25 -2.28125 Z M 6.90625 -2.28125 "/></g></g><g style="fill:#ffffff;fill-opacity:1;"><g transform="translate(168.132219, 194.653581)"><path style="stroke:none" d="M 0.96875 -8.671875 L 4.015625 -8.671875 L 4.015625 0 L 0.96875 0 Z M 2.5 -9.625 C 1.945312 -9.625 1.5 -9.78125 1.15625 -10.09375 C 0.8125 -10.40625 0.640625 -10.789062 0.640625 -11.25 C 0.640625 -11.707031 0.8125 -12.085938 1.15625 -12.390625 C 1.5 -12.703125 1.945312 -12.859375 2.5 -12.859375 C 3.050781 -12.859375 3.5 -12.710938 3.84375 -12.421875 C 4.1875 -12.128906 4.359375 -11.753906 4.359375 -11.296875 C 4.359375 -10.816406 4.1875 -10.414062 3.84375 -10.09375 C 3.5 -9.78125 3.050781 -9.625 2.5 -9.625 Z M 2.5 -9.625 "/></g></g><g style="fill:#ffffff;fill-opacity:1;"><g transform="translate(173.13902, 194.653581)"><path style="stroke:none" d="M 6.4375 -8.8125 C 7.21875 -8.8125 7.929688 -8.628906 8.578125 -8.265625 C 9.222656 -7.910156 9.734375 -7.394531 10.109375 -6.71875 C 10.492188 -6.039062 10.6875 -5.253906 10.6875 -4.359375 C 10.6875 -3.460938 10.492188 -2.671875 10.109375 -1.984375 C 9.734375 -1.296875 9.222656 -0.769531 8.578125 -0.40625 C 7.929688 -0.0390625 7.21875 0.140625 6.4375 0.140625 C 5.289062 0.140625 4.4375 -0.191406 3.875 -0.859375 L 3.875 0 L 0.96875 0 L 0.96875 -11.875 L 4.015625 -11.875 L 4.015625 -7.921875 C 4.597656 -8.515625 5.40625 -8.8125 6.4375 -8.8125 Z M 5.796875 -2.265625 C 6.328125 -2.265625 6.757812 -2.445312 7.09375 -2.8125 C 7.4375 -3.1875 7.609375 -3.703125 7.609375 -4.359375 C 7.609375 -4.992188 7.4375 -5.492188 7.09375 -5.859375 C 6.757812 -6.222656 6.328125 -6.40625 5.796875 -6.40625 C 5.253906 -6.40625 4.8125 -6.222656 4.46875 -5.859375 C 4.132812 -5.492188 3.96875 -4.992188 3.96875 -4.359375 C 3.96875 -3.703125 4.132812 -3.1875 4.46875 -2.8125 C 4.8125 -2.445312 5.253906 -2.265625 5.796875 -2.265625 Z M 5.796875 -2.265625 "/></g></g><g style="fill:#ffffff;fill-opacity:1;"><g transform="translate(184.256348, 194.653581)"><path style="stroke:none" d="M 0.96875 -11.875 L 4.015625 -11.875 L 4.015625 0 L 0.96875 0 Z M 0.96875 -11.875 "/></g></g><g style="fill:#ffffff;fill-opacity:1;"><g transform="translate(189.263149, 194.653581)"><path style="stroke:none" d="M 9.84375 -4.3125 C 9.84375 -4.289062 9.828125 -4.039062 9.796875 -3.5625 L 3.484375 -3.5625 C 3.617188 -3.113281 3.867188 -2.769531 4.234375 -2.53125 C 4.597656 -2.289062 5.054688 -2.171875 5.609375 -2.171875 C 6.023438 -2.171875 6.382812 -2.226562 6.6875 -2.34375 C 7 -2.46875 7.304688 -2.660156 7.609375 -2.921875 L 9.21875 -1.265625 C 8.375 -0.328125 7.140625 0.140625 5.515625 0.140625 C 4.503906 0.140625 3.613281 -0.0507812 2.84375 -0.4375 C 2.082031 -0.820312 1.488281 -1.351562 1.0625 -2.03125 C 0.644531 -2.71875 0.4375 -3.492188 0.4375 -4.359375 C 0.4375 -5.203125 0.640625 -5.960938 1.046875 -6.640625 C 1.453125 -7.316406 2.019531 -7.847656 2.75 -8.234375 C 3.476562 -8.617188 4.296875 -8.8125 5.203125 -8.8125 C 6.066406 -8.8125 6.847656 -8.632812 7.546875 -8.28125 C 8.253906 -7.925781 8.8125 -7.410156 9.21875 -6.734375 C 9.632812 -6.054688 9.84375 -5.25 9.84375 -4.3125 Z M 5.21875 -6.65625 C 4.75 -6.65625 4.351562 -6.519531 4.03125 -6.25 C 3.71875 -5.988281 3.519531 -5.628906 3.4375 -5.171875 L 6.984375 -5.171875 C 6.898438 -5.628906 6.703125 -5.988281 6.390625 -6.25 C 6.078125 -6.519531 5.6875 -6.65625 5.21875 -6.65625 Z M 5.21875 -6.65625 "/></g></g><g style="fill:#ffffff;fill-opacity:1;"><g transform="translate(199.532687, 194.653581)"><path style="stroke:none" d=""/></g></g><g style="fill:#ffffff;fill-opacity:1;"><g transform="translate(204.187571, 194.653581)"><path style="stroke:none" d="M 8.625 -2.171875 L 3.890625 -2.171875 L 3.015625 0 L -0.21875 0 L 4.71875 -11.203125 L 7.84375 -11.203125 L 12.796875 0 L 9.5 0 Z M 7.703125 -4.515625 L 6.25 -8.09375 L 4.8125 -4.515625 Z M 7.703125 -4.515625 "/></g></g><g style="fill:#ffffff;fill-opacity:1;"><g transform="translate(216.600576, 194.653581)"><path style="stroke:none" d="M 10.09375 -8.671875 L 10.09375 0 L 7.203125 0 L 7.203125 -0.921875 C 6.878906 -0.578125 6.492188 -0.3125 6.046875 -0.125 C 5.597656 0.0507812 5.125 0.140625 4.625 0.140625 C 3.5 0.140625 2.601562 -0.1875 1.9375 -0.84375 C 1.269531 -1.507812 0.9375 -2.503906 0.9375 -3.828125 L 0.9375 -8.671875 L 3.984375 -8.671875 L 3.984375 -4.3125 C 3.984375 -3.664062 4.101562 -3.191406 4.34375 -2.890625 C 4.59375 -2.597656 4.953125 -2.453125 5.421875 -2.453125 C 5.898438 -2.453125 6.289062 -2.617188 6.59375 -2.953125 C 6.90625 -3.285156 7.0625 -3.800781 7.0625 -4.5 L 7.0625 -8.671875 Z M 10.09375 -8.671875 "/></g></g><g style="fill:#ffffff;fill-opacity:1;"><g transform="translate(227.669919, 194.653581)"><path style="stroke:none" d="M 3.875 -7.625 C 4.1875 -8.019531 4.585938 -8.316406 5.078125 -8.515625 C 5.578125 -8.710938 6.144531 -8.8125 6.78125 -8.8125 L 6.78125 -6.078125 C 6.507812 -6.109375 6.28125 -6.125 6.09375 -6.125 C 5.445312 -6.125 4.9375 -5.945312 4.5625 -5.59375 C 4.195312 -5.25 4.015625 -4.710938 4.015625 -3.984375 L 4.015625 0 L 0.96875 0 L 0.96875 -8.671875 L 3.875 -8.671875 Z M 3.875 -7.625 "/></g></g><g style="fill:#ffffff;fill-opacity:1;"><g transform="translate(234.660233, 194.653581)"><path style="stroke:none" d="M 4.671875 -8.8125 C 6.109375 -8.8125 7.207031 -8.484375 7.96875 -7.828125 C 8.726562 -7.171875 9.109375 -6.164062 9.109375 -4.8125 L 9.109375 0 L 6.265625 0 L 6.265625 -1.125 C 5.828125 -0.28125 4.976562 0.140625 3.71875 0.140625 C 3.039062 0.140625 2.457031 0.0234375 1.96875 -0.203125 C 1.476562 -0.441406 1.109375 -0.757812 0.859375 -1.15625 C 0.609375 -1.5625 0.484375 -2.019531 0.484375 -2.53125 C 0.484375 -3.351562 0.796875 -3.988281 1.421875 -4.4375 C 2.054688 -4.894531 3.03125 -5.125 4.34375 -5.125 L 6.0625 -5.125 C 6.007812 -6.039062 5.394531 -6.5 4.21875 -6.5 C 3.800781 -6.5 3.378906 -6.429688 2.953125 -6.296875 C 2.523438 -6.160156 2.164062 -5.976562 1.875 -5.75 L 0.84375 -7.8125 C 1.320312 -8.125 1.90625 -8.367188 2.59375 -8.546875 C 3.28125 -8.722656 3.972656 -8.8125 4.671875 -8.8125 Z M 4.5625 -1.78125 C 4.914062 -1.78125 5.222656 -1.863281 5.484375 -2.03125 C 5.753906 -2.195312 5.945312 -2.445312 6.0625 -2.78125 L 6.0625 -3.53125 L 4.75 -3.53125 C 3.863281 -3.53125 3.421875 -3.238281 3.421875 -2.65625 C 3.421875 -2.382812 3.519531 -2.171875 3.71875 -2.015625 C 3.925781 -1.859375 4.207031 -1.78125 4.5625 -1.78125 Z M 4.5625 -1.78125 "/></g></g><g style="fill:#f85700;fill-opacity:1;"><g transform="translate(129.835645, 199.736287)"><path style="stroke:none" d="M 12.890625 -23 C 12.972656 -23 13.054688 -22.847656 13.140625 -22.546875 C 13.191406 -22.347656 13.238281 -22.171875 13.28125 -22.015625 C 13.90625 -19.691406 15.289062 -17.53125 17.4375 -15.53125 C 19.582031 -13.53125 21.90625 -12.210938 24.40625 -11.578125 C 24.644531 -11.535156 24.765625 -11.453125 24.765625 -11.328125 C 24.765625 -11.171875 24.632812 -11.070312 24.375 -11.03125 C 21.757812 -10.457031 19.328125 -9.03125 17.078125 -6.75 C 14.828125 -4.46875 13.460938 -2.1875 12.984375 0.09375 C 12.921875 0.3125 12.832031 0.421875 12.71875 0.421875 C 12.59375 0.421875 12.519531 0.300781 12.5 0.0625 C 12.28125 -1.113281 11.804688 -2.34375 11.078125 -3.625 C 10.347656 -4.90625 9.484375 -6.023438 8.484375 -6.984375 C 7.609375 -7.847656 6.429688 -8.710938 4.953125 -9.578125 C 3.472656 -10.453125 2.320312 -10.976562 1.5 -11.15625 C 1.257812 -11.21875 1.140625 -11.316406 1.140625 -11.453125 C 1.140625 -11.609375 1.457031 -11.765625 2.09375 -11.921875 C 2.738281 -12.085938 3.664062 -12.472656 4.875 -13.078125 C 6.082031 -13.691406 7.21875 -14.550781 8.28125 -15.65625 C 9.375 -16.769531 10.328125 -17.984375 11.140625 -19.296875 C 11.953125 -20.609375 12.445312 -21.722656 12.625 -22.640625 C 12.664062 -22.878906 12.753906 -23 12.890625 -23 Z M 12.890625 -23 "/></g></g></g></svg>