<svg xmlns="http://www.w3.org/2000/svg" xmlns:xlink="http://www.w3.org/1999/xlink" width="500" zoomAndPan="magnify" viewBox="0 0 375 374.999991" height="500" preserveAspectRatio="xMidYMid meet" version="1.2"><defs/><g id="97fe867cb2"><g style="fill:#f85700;fill-opacity:1;"><g transform="translate(158.853863, 214.581056)"><path style="stroke:none" d="M 28.53125 -50.921875 C 28.71875 -50.921875 28.910156 -50.582031 29.109375 -49.90625 C 29.203125 -49.46875 29.296875 -49.082031 29.390625 -48.75 C 30.785156 -43.59375 33.851562 -38.800781 38.59375 -34.375 C 43.34375 -29.945312 48.484375 -27.035156 54.015625 -25.640625 C 54.546875 -25.546875 54.8125 -25.351562 54.8125 -25.0625 C 54.8125 -24.71875 54.523438 -24.5 53.953125 -24.40625 C 48.171875 -23.15625 42.785156 -20 37.796875 -14.9375 C 32.816406 -9.882812 29.800781 -4.832031 28.75 0.21875 C 28.601562 0.695312 28.410156 0.9375 28.171875 0.9375 C 27.878906 0.9375 27.707031 0.671875 27.65625 0.140625 C 27.175781 -2.453125 26.128906 -5.171875 24.515625 -8.015625 C 22.898438 -10.859375 20.988281 -13.335938 18.78125 -15.453125 C 16.851562 -17.378906 14.25 -19.304688 10.96875 -21.234375 C 7.695312 -23.160156 5.148438 -24.316406 3.328125 -24.703125 C 2.796875 -24.847656 2.53125 -25.0625 2.53125 -25.34375 C 2.53125 -25.6875 3.238281 -26.035156 4.65625 -26.390625 C 6.070312 -26.753906 8.117188 -27.609375 10.796875 -28.953125 C 13.472656 -30.304688 15.988281 -32.210938 18.34375 -34.671875 C 20.75 -37.117188 22.851562 -39.800781 24.65625 -42.71875 C 26.46875 -45.632812 27.566406 -48.101562 27.953125 -50.125 C 28.046875 -50.65625 28.238281 -50.921875 28.53125 -50.921875 Z M 28.53125 -50.921875 "/></g></g></g></svg>